<?xml version="1.0" standalone="no"?><!DOCTYPE svg PUBLIC "-//W3C//DTD SVG 1.1//EN" "http://www.w3.org/Graphics/SVG/1.1/DTD/svg11.dtd"><svg t="1712405984247" class="icon" viewBox="0 0 1024 1024" version="1.1" xmlns="http://www.w3.org/2000/svg" p-id="4262" xmlns:xlink="http://www.w3.org/1999/xlink" width="200" height="200"><path d="M742.144 130.1504a25.6 25.6 0 0 1 25.4208 22.528l0.1792 2.9952 0.256 76.8a25.6 25.6 0 0 1-51.0208 3.1488L716.8 232.6272l-0.1792-51.2768L460.8 181.3248V844.8h102.4a25.6 25.6 0 0 1 0 51.2H307.2a25.6 25.6 0 0 1 0-51.2h102.4V181.3248L153.6 181.3504V231.168a25.6 25.6 0 0 1-22.6048 25.4464L128 256.768a25.6 25.6 0 0 1-25.4208-22.6048L102.4 231.168V155.7504a25.6 25.6 0 0 1 22.6048-25.4208L128 130.1504h614.144zM716.8 590.9248l-76.8256 0.0256-0.1536 2.5344a25.6 25.6 0 0 1-22.4256 22.4256l-2.9952 0.1792a25.6 25.6 0 0 1-25.4208-22.6048L588.8 590.4896v-25.1392a25.6 25.6 0 0 1 22.6048-25.4208l2.9952-0.1792h255.8976a25.6 25.6 0 0 1 25.4208 22.528l0.1792 2.9696 0.1024 25.6a25.6 25.6 0 0 1-51.0208 3.2L844.8 590.9504l-76.8-0.0256V844.8h51.2a25.6 25.6 0 0 1 2.9952 51.0208L819.2 896h-152.192a25.6 25.6 0 0 1-2.9952-51.0208l2.9952-0.1792H716.8v-253.8752z" p-id="4263"></path></svg>